<?xml version="1.0" encoding="UTF-8" standalone="no"?>
<!-- Generator: Adobe Illustrator 16.0.0, SVG Export Plug-In . SVG Version: 6.00 Build 0)  -->

<svg
   xmlns:dc="http://purl.org/dc/elements/1.1/"
   xmlns:cc="http://creativecommons.org/ns#"
   xmlns:rdf="http://www.w3.org/1999/02/22-rdf-syntax-ns#"
   xmlns:svg="http://www.w3.org/2000/svg"
   xmlns="http://www.w3.org/2000/svg"
   xmlns:sodipodi="http://sodipodi.sourceforge.net/DTD/sodipodi-0.dtd"
   xmlns:inkscape="http://www.inkscape.org/namespaces/inkscape"
   version="1.1"
   id="Capa_1"
   x="0px"
   y="0px"
   width="792.395px"
   height="239.437px"
   viewBox="177.072 55.547 792.395 239.437"
   enable-background="new 177.072 55.547 792.395 239.437"
   xml:space="preserve"
   sodipodi:docname="engisoftcloud_white.svg"
   inkscape:version="0.92.3 (2405546, 2018-03-11)"><metadata
   id="metadata957"><rdf:RDF><cc:Work
       rdf:about=""><dc:format>image/svg+xml</dc:format><dc:type
         rdf:resource="http://purl.org/dc/dcmitype/StillImage" /><dc:title></dc:title></cc:Work></rdf:RDF></metadata><defs
   id="defs955" /><sodipodi:namedview
   pagecolor="#ffffff"
   bordercolor="#666666"
   borderopacity="1"
   objecttolerance="10"
   gridtolerance="10"
   guidetolerance="10"
   inkscape:pageopacity="0"
   inkscape:pageshadow="2"
   inkscape:window-width="1861"
   inkscape:window-height="1056"
   id="namedview953"
   showgrid="false"
   inkscape:zoom="1.5257542"
   inkscape:cx="396.19751"
   inkscape:cy="119.7185"
   inkscape:window-x="59"
   inkscape:window-y="24"
   inkscape:window-maximized="1"
   inkscape:current-layer="Capa_1" />
<g
   id="g950"
   style="fill:#ffffff">
	<path
   fill="#2677BF"
   d="M500.76,184.905l-7.636-0.029c0.009-0.243,0.014-0.484,0.014-0.734c0.16-39.982-32.23-72.634-72.209-72.795   c-7.512-0.032-15.032,1.149-22.377,3.503c-17.04-35.91-53.463-59.138-93.178-59.301c-57.176-0.224-103.888,46.098-104.117,103.274   c-0.042,10.557,1.568,21.1,4.772,31.359c-17.813,9.414-28.876,27.621-28.957,47.813c-0.123,29.975,24.177,54.443,54.159,54.571   l268.734-0.027c0-0.997,0-1.996,0-2.994l-268.724,0.029c-28.332-0.123-51.286-23.248-51.171-51.569   c0.076-19.48,10.976-37.005,28.441-45.724l1.16-0.582l-0.401-1.223c-3.368-10.348-5.055-20.988-5.012-31.644   c0.225-55.519,45.576-100.501,101.104-100.281c38.999,0.16,74.734,23.227,91.029,58.769l0.565,1.228l1.284-0.436   c7.429-2.526,15.061-3.797,22.679-3.765c38.326,0.157,69.379,31.458,69.225,69.776c-0.002,0.449-0.029,0.869-0.056,1.294   l-0.108,2.442l10.771,0.041c28.321,0.118,51.273,23.261,51.159,51.6c-0.113,28.32-23.363,50.12-51.689,50.008h-0.16   c0,0.999,0,1.996,0,2.995h0.145c29.98,0.117,54.583-23.016,54.7-52.988C555.021,209.525,530.735,185.027,500.76,184.905z"
   id="path906"
   style="fill:#ffffff" />
	<polygon
   fill="#2677BF"
   points="629.766,113.746 611.539,113.746 611.539,104.864 628.732,104.864 628.732,93.592 611.539,93.592    611.539,84.486 629.766,84.486 629.766,72.96 597.578,72.96 597.578,125.512 629.766,125.512  "
   id="polygon908"
   style="fill:#ffffff" />
	<path
   fill="#2677BF"
   d="M690.602,72.96H676.87v25.96c0,1.321,0.059,2.828,0.195,4.511c0.117,1.706,0.343,3.635,0.621,5.814   c-1.056-2.292-2.014-4.259-2.891-5.931c-0.881-1.673-1.501-2.781-1.883-3.317l-19.84-27.037h-13.824v52.549h13.824V99.571   c0-1.326-0.075-2.83-0.199-4.537c-0.133-1.683-0.338-3.645-0.631-5.847c1.031,2.246,1.98,4.222,2.863,5.866   c0.866,1.67,1.506,2.779,1.908,3.316l19.857,27.141h13.732V72.96H690.602z"
   id="path910"
   style="fill:#ffffff" />
	<path
   fill="#2677BF"
   d="M755.055,98.233c0-0.826,0-1.469-0.015-1.896c-0.015-0.426-0.028-0.819-0.049-1.176h-28.135v11.005h14.244   c-0.406,2.968-1.827,5.354-4.251,7.119c-2.426,1.781-5.461,2.683-9.099,2.683c-4.287,0-7.649-1.434-10.118-4.31   c-2.461-2.877-3.696-6.813-3.696-11.817c0-4.946,1.231-8.855,3.696-11.712c2.469-2.862,5.831-4.297,10.118-4.297   c2.308,0,4.373,0.516,6.229,1.512c1.843,0.978,3.526,2.484,5.005,4.525l12.416-5.943c-2.71-4.017-6.029-7.06-9.991-9.08   c-3.964-2.038-8.518-3.065-13.659-3.065c-3.944,0-7.618,0.66-11.032,1.986c-3.415,1.299-6.429,3.256-9.062,5.814   c-2.651,2.63-4.646,5.582-5.997,8.874c-1.331,3.288-2.018,6.894-2.018,10.821c0,3.748,0.699,7.351,2.069,10.798   c1.375,3.42,3.313,6.386,5.798,8.906c2.611,2.623,5.566,4.594,8.873,5.86c3.328,1.292,7.104,1.94,11.367,1.94   c8.674,0,15.385-2.497,20.155-7.495C752.676,114.289,755.055,107.281,755.055,98.233z"
   id="path912"
   style="fill:#ffffff" />
	<rect
   x="764.187"
   y="72.96"
   fill="#2677BF"
   width="14.45"
   height="52.549"
   id="rect914"
   style="fill:#ffffff" />
	<path
   fill="#2677BF"
   d="M821.065,97.741c-1.84-1.91-5.69-3.63-11.528-5.223l-0.632-0.168c-2.71-0.714-4.535-1.468-5.479-2.25   c-0.954-0.81-1.413-1.838-1.413-3.168c0-1.302,0.533-2.365,1.616-3.183c1.076-0.817,2.468-1.223,4.197-1.223   c1.669,0,3.356,0.355,5.079,1.057c1.702,0.71,3.365,1.762,4.992,3.124l4.493-10.286c-2.327-1.576-4.774-2.772-7.377-3.542   c-2.594-0.778-5.338-1.165-8.233-1.165c-5.354,0-9.718,1.575-13.083,4.75c-3.358,3.18-5.041,7.27-5.041,12.297   c0,3.884,1.062,6.925,3.2,9.148c2.128,2.222,5.762,4.029,10.904,5.418c3.757,1.013,6.166,1.996,7.238,2.923   c1.061,0.961,1.599,2.282,1.599,4.033c0,1.597-0.63,2.889-1.864,3.914c-1.214,1.038-2.797,1.541-4.716,1.541   c-2.06,0-4.114-0.583-6.188-1.798c-2.063-1.187-4.172-2.997-6.293-5.42l-6.461,10.678c2.767,2.652,5.661,4.586,8.67,5.844   c2.992,1.236,6.334,1.867,9.992,1.867c6.1,0,10.975-1.703,14.63-5.073c3.674-3.383,5.501-7.882,5.501-13.446   c0-2.197-0.322-4.218-0.972-6.021C823.257,100.566,822.315,99.019,821.065,97.741z"
   id="path916"
   style="fill:#ffffff" />
	<path
   fill="#2677BF"
   d="M878.7,79.85c-2.627-2.586-5.675-4.559-9.128-5.966c-3.463-1.404-7.057-2.103-10.792-2.103   c-3.751,0-7.353,0.699-10.786,2.103c-3.43,1.407-6.449,3.38-9.065,5.966c-2.701,2.627-4.751,5.585-6.155,8.898   c-1.39,3.305-2.089,6.847-2.089,10.595c0,3.725,0.699,7.262,2.089,10.584c1.404,3.319,3.454,6.311,6.155,8.917   c2.617,2.578,5.637,4.564,9.065,5.963c3.434,1.402,7.035,2.104,10.786,2.104c3.709,0,7.295-0.702,10.734-2.104   c3.45-1.399,6.503-3.386,9.183-5.963c2.663-2.605,4.683-5.583,6.076-8.88c1.375-3.3,2.074-6.829,2.074-10.618   c0-3.747-0.705-7.297-2.104-10.616C883.357,85.41,881.335,82.453,878.7,79.85z M868.641,110.406   c-2.603,2.923-5.893,4.382-9.861,4.382c-4.038,0-7.348-1.445-9.901-4.342c-2.561-2.896-3.838-6.612-3.838-11.103   c0-4.422,1.297-8.097,3.889-11.022c2.604-2.931,5.893-4.398,9.854-4.398c3.906,0,7.173,1.473,9.795,4.411   c2.642,2.94,3.949,6.614,3.949,11.01C872.526,103.795,871.228,107.467,868.641,110.406z"
   id="path918"
   style="fill:#ffffff" />
	<polygon
   fill="#2677BF"
   points="909.775,104.864 926.981,104.864 926.981,93.592 909.775,93.592 909.775,84.486 928.02,84.486    928.02,72.96 895.813,72.96 895.813,125.512 909.775,125.512  "
   id="polygon920"
   style="fill:#ffffff" />
	<polygon
   fill="#2677BF"
   points="931.609,72.96 931.609,85.396 943.376,85.396 943.376,125.512 957.691,125.512 957.691,85.396    969.467,85.396 969.467,72.96  "
   id="polygon922"
   style="fill:#ffffff" />
	<path
   fill="#2677BF"
   d="M957.99,161.089c-2.77-2.199-6.14-3.777-10.021-4.685c-3.943-0.924-10.785-1.396-20.322-1.396h-9.712   v67.339h11.854c8.469,0,14.658-0.483,18.405-1.433c3.704-0.939,7.035-2.534,9.902-4.75c3.629-2.776,6.451-6.549,8.395-11.209   c1.96-4.696,2.956-10.16,2.956-16.229c0-6.066-0.993-11.521-2.952-16.203C964.549,167.876,961.688,164.029,957.99,161.089z    M962.644,202.903c-1.544,4.205-3.87,7.776-6.904,10.602c-2.206,2.048-4.941,3.522-8.12,4.378   c-3.137,0.842-8.236,1.248-15.597,1.248h-10.015V157.99h7.975c8.148,0,13.728,0.413,17.053,1.27   c3.36,0.861,6.257,2.371,8.601,4.481c3.06,2.701,5.41,6.211,6.981,10.425c1.54,4.163,2.323,9.027,2.323,14.459   C964.938,193.931,964.173,198.74,962.644,202.903z"
   id="path924"
   style="fill:#ffffff" />
	<path
   fill="#2677BF"
   d="M879.994,199.326c0,7.144-1.684,12.559-5.015,16.097c-3.341,3.566-8.412,5.374-15.072,5.374   c-6.757,0-11.879-1.808-15.22-5.374c-3.327-3.538-5.01-8.953-5.01-16.097v-44.319h-3.982v42.279c0,9.075,2.021,15.92,5.982,20.328   c3.943,4.363,10.079,6.58,18.229,6.58c8.121,0,14.236-2.217,18.18-6.58c3.967-4.418,5.985-11.257,5.985-20.328v-42.279h-4.077   L879.994,199.326L879.994,199.326z"
   id="path926"
   style="fill:#ffffff" />
	<path
   fill="#2677BF"
   d="M802.468,175.158c-1.79-4.259-4.438-8.14-7.868-11.538c-3.361-3.295-7.259-5.846-11.591-7.575   c-4.328-1.727-9.043-2.605-14.016-2.605c-4.937,0-9.628,0.873-13.953,2.583c-4.309,1.714-8.196,4.266-11.56,7.598   c-3.428,3.406-6.075,7.285-7.866,11.538c-1.787,4.256-2.691,8.855-2.691,13.659c0,4.748,0.904,9.295,2.691,13.518   c1.79,4.229,4.441,8.1,7.866,11.502c3.439,3.371,7.373,5.964,11.688,7.72c8.652,3.513,18.982,3.513,27.672,0   c4.337-1.755,8.298-4.354,11.769-7.729c3.4-3.342,6.037-7.197,7.832-11.448c1.804-4.256,2.716-8.819,2.716-13.562   C805.157,184.014,804.256,179.425,802.468,175.158z M798.311,201.113c-1.586,3.86-3.902,7.363-6.874,10.41   c-3.053,3.02-6.524,5.338-10.313,6.903c-3.797,1.565-7.883,2.368-12.128,2.368c-4.349,0-8.444-0.787-12.183-2.351   c-3.742-1.562-7.164-3.89-10.171-6.923c-3.008-3.08-5.327-6.575-6.898-10.411c-1.565-3.845-2.362-7.984-2.362-12.294   c0-4.337,0.797-8.474,2.362-12.281c1.571-3.81,3.891-7.31,6.895-10.411c3.063-3.024,6.511-5.343,10.27-6.906   c7.565-3.155,16.678-3.133,24.284-0.002c3.814,1.57,7.263,3.895,10.245,6.898c3.009,3.073,5.327,6.575,6.898,10.421   c1.57,3.837,2.372,7.979,2.372,12.281C800.708,193.099,799.895,197.238,798.311,201.113z"
   id="path928"
   style="fill:#ffffff" />
	<polygon
   fill="#2677BF"
   points="712.791,218.66 688.939,218.66 688.939,155.005 684.864,155.005 684.864,222.346 712.791,222.346     "
   id="polygon930"
   style="fill:#ffffff" />
	<path
   fill="#2677BF"
   d="M653.944,213.637c-2.952,2.073-6.072,3.705-9.293,4.854c-7.944,2.853-16.766,2.808-24.066-0.158   c-3.724-1.508-7.074-3.733-9.951-6.615c-2.914-2.952-5.12-6.369-6.556-10.187c-1.414-3.797-2.139-8.099-2.139-12.808   c0-9.428,2.948-17.184,8.763-23.082c5.811-5.897,13.456-8.892,22.726-8.892c4.126,0,8.107,0.747,11.823,2.217   c3.08,1.216,6.133,2.996,9.105,5.306l0.056-4.095c-2.886-2.183-6.097-3.851-9.563-4.966c-3.651-1.182-7.69-1.776-11.985-1.776   c-4.807,0-9.504,0.888-13.961,2.629c-4.456,1.75-8.303,4.198-11.438,7.267c-3.236,3.142-5.752,6.936-7.469,11.257   c-1.726,4.349-2.602,9.11-2.602,14.134c0,5.124,0.854,9.906,2.539,14.183c1.675,4.271,4.183,8.079,7.445,11.309   c3.166,3.141,7.019,5.621,11.448,7.36c7.726,3.032,16.377,3.542,25.056,0.98c3.513-1.031,6.894-2.5,10.066-4.373v-4.548h-0.006   V213.637z"
   id="path932"
   style="fill:#ffffff" />
	<path
   fill="#2677BF"
   d="M610.651,270.977c-0.412-0.228-1.029-0.556-1.828-0.981c-4.442-2.344-6.66-4.878-6.649-7.576   c0.011-1.896,0.573-3.393,1.698-4.497c1.13-1.104,2.642-1.656,4.529-1.652c1.412,0.015,2.618,0.304,3.643,0.888   c1.025,0.574,1.815,1.419,2.365,2.525l2.718-1.617c-0.885-1.629-2.047-2.864-3.466-3.679c-1.43-0.822-3.107-1.233-5.036-1.248   c-2.948-0.01-5.353,0.842-7.207,2.549c-1.849,1.718-2.786,3.933-2.791,6.663c-0.015,2.196,0.622,4.075,1.894,5.646   c1.277,1.561,3.839,3.381,7.71,5.449c3.026,1.625,4.992,3.054,5.912,4.281c0.913,1.232,1.37,2.769,1.36,4.625   c-0.012,2.544-0.702,4.536-2.079,5.969c-1.372,1.436-3.272,2.141-5.708,2.133c-1.933-0.005-3.584-0.534-4.954-1.58   c-1.375-1.057-2.335-2.529-2.887-4.422l-3.003,1.59c1.001,2.495,2.407,4.379,4.195,5.636c1.792,1.262,3.953,1.894,6.479,1.903   c3.468,0.01,6.217-0.983,8.243-3c2.021-2.02,3.038-4.753,3.059-8.206c0.007-2.559-0.536-4.646-1.633-6.247   C616.116,274.511,613.928,272.799,610.651,270.977z"
   id="path934"
   style="fill:#ffffff" />
	<polygon
   fill="#2677BF"
   points="649.199,292.715 668.263,292.796 668.275,289.51 652.707,289.454 652.768,272.86 668.343,272.921    668.351,269.636 652.782,269.569 652.835,257.528 668.401,257.588 668.413,254.303 649.356,254.228  "
   id="polygon936"
   style="fill:#ffffff" />
	<path
   fill="#2677BF"
   d="M716.399,272.06c1.78-1.708,2.682-4.066,2.69-7.069c0.015-3.522-1.008-6.155-3.078-7.89   c-2.071-1.746-5.189-2.628-9.361-2.644l-7.081-0.029l-0.159,38.492l3.503,0.015l0.066-18.351l2.111,0.01l13.441,18.4l4.261,0.021   l-13.762-18.406C712.155,274.623,714.608,273.772,716.399,272.06z M702.999,271.72l0.058-14.229l3.526,0.015   c3.17,0.013,5.416,0.577,6.746,1.71c1.328,1.126,1.981,3.015,1.977,5.655c-0.013,2.516-0.667,4.291-1.952,5.323   c-1.3,1.042-3.571,1.55-6.832,1.541L702.999,271.72z"
   id="path938"
   style="fill:#ffffff" />
	<polygon
   fill="#2677BF"
   points="760.321,286.015 749.344,254.629 745.328,254.612 760.229,294.661 775.958,254.737    772.122,254.719  "
   id="polygon940"
   style="fill:#ffffff" />
	<rect
   x="802.748"
   y="254.849"
   fill="#2677BF"
   width="3.503"
   height="38.487"
   id="rect942"
   style="fill:#ffffff" />
	<path
   fill="#2677BF"
   d="M856.944,254.197c-2.757-0.015-5.406,0.473-7.962,1.463c-2.549,0.988-4.74,2.36-6.544,4.122   c-1.868,1.803-3.313,3.943-4.303,6.428c-1.001,2.489-1.511,5.169-1.519,8.038c-0.016,2.936,0.454,5.621,1.408,8.082   c0.962,2.456,2.373,4.621,4.242,6.481c1.81,1.822,3.987,3.23,6.526,4.237c2.535,1.007,5.198,1.517,7.986,1.531   c2.07,0.01,4.158-0.299,6.276-0.91c2.113-0.612,4.122-1.493,6.017-2.642l0.021-4.112c-1.879,1.473-3.881,2.573-5.989,3.321   c-2.105,0.749-4.261,1.116-6.468,1.111c-2.279-0.011-4.419-0.421-6.405-1.243c-1.981-0.816-3.742-1.996-5.276-3.542   c-1.551-1.59-2.71-3.396-3.464-5.431c-0.762-2.04-1.125-4.332-1.116-6.874c0.021-5.058,1.591-9.168,4.712-12.313   c3.121-3.142,7.176-4.701,12.157-4.677c2.214,0.004,4.317,0.401,6.309,1.201c1.996,0.8,3.948,2.025,5.851,3.684l0.069-3.865   c-1.72-1.354-3.615-2.372-5.715-3.058C861.675,254.55,859.4,254.2,856.944,254.197z"
   id="path944"
   style="fill:#ffffff" />
	<polygon
   fill="#2677BF"
   points="899.434,293.723 918.496,293.796 918.512,290.52 902.944,290.454 903.01,273.86 918.582,273.926    918.589,270.636 903.024,270.574 903.072,258.529 918.646,258.587 918.66,255.303 899.593,255.239  "
   id="polygon946"
   style="fill:#ffffff" />
	<path
   fill="#2677BF"
   d="M960.523,272.382c-0.416-0.229-1.027-0.558-1.84-0.978c-4.44-2.351-6.651-4.878-6.642-7.579   c0.004-1.893,0.567-3.391,1.696-4.506c1.125-1.105,2.638-1.658,4.531-1.648c1.406,0.005,2.615,0.299,3.645,0.888   c1.012,0.575,1.809,1.421,2.362,2.53l2.717-1.617c-0.887-1.637-2.051-2.867-3.469-3.688c-1.425-0.813-3.099-1.233-5.034-1.238   c-2.948-0.014-5.351,0.836-7.197,2.551c-1.858,1.707-2.794,3.932-2.803,6.661c-0.006,2.191,0.626,4.07,1.893,5.64   c1.277,1.561,3.851,3.384,7.71,5.458c3.029,1.614,5.001,3.044,5.908,4.275c0.924,1.221,1.382,2.765,1.364,4.628   c-0.01,2.538-0.697,4.525-2.067,5.965c-1.381,1.438-3.285,2.143-5.719,2.134c-1.93-0.005-3.581-0.536-4.953-1.582   c-1.375-1.057-2.333-2.524-2.889-4.423l-2.999,1.596c1.007,2.5,2.406,4.369,4.197,5.631c1.79,1.258,3.948,1.9,6.473,1.905   c3.476,0.016,6.218-0.985,8.238-2.999c2.034-2.016,3.049-4.75,3.065-8.215c0.009-2.556-0.536-4.638-1.634-6.246   C965.975,275.919,963.789,274.198,960.523,272.382z"
   id="path948"
   style="fill:#ffffff" />
</g>
</svg>